<svg width="371" height="44" viewBox="0 0 371 44" fill="none" xmlns="http://www.w3.org/2000/svg">
<rect x="267" width="104" height="44" fill="#33658A"/>
<path d="M293.369 27V17.2H297.961C299.137 17.2 300.033 17.4333 300.649 17.9C301.265 18.3573 301.573 18.9733 301.573 19.748C301.573 20.2707 301.451 20.7187 301.209 21.092C300.966 21.456 300.639 21.7407 300.229 21.946C299.827 22.142 299.389 22.24 298.913 22.24L299.165 21.736C299.715 21.736 300.21 21.8387 300.649 22.044C301.087 22.24 301.433 22.5293 301.685 22.912C301.946 23.2947 302.077 23.7707 302.077 24.34C302.077 25.18 301.755 25.8333 301.111 26.3C300.467 26.7667 299.51 27 298.241 27H293.369ZM295.189 25.572H298.129C298.81 25.572 299.333 25.46 299.697 25.236C300.061 25.012 300.243 24.6527 300.243 24.158C300.243 23.6727 300.061 23.318 299.697 23.094C299.333 22.8607 298.81 22.744 298.129 22.744H295.049V21.33H297.765C298.399 21.33 298.885 21.218 299.221 20.994C299.566 20.77 299.739 20.434 299.739 19.986C299.739 19.5287 299.566 19.188 299.221 18.964C298.885 18.74 298.399 18.628 297.765 18.628H295.189V25.572ZM303.851 27V19.524H305.517V21.582L305.321 20.98C305.545 20.476 305.895 20.0933 306.371 19.832C306.856 19.5707 307.458 19.44 308.177 19.44V21.106C308.102 21.0873 308.032 21.078 307.967 21.078C307.902 21.0687 307.836 21.064 307.771 21.064C307.108 21.064 306.581 21.26 306.189 21.652C305.797 22.0347 305.601 22.6087 305.601 23.374V27H303.851ZM312.953 27.098C312.188 27.098 311.507 26.9347 310.909 26.608C310.312 26.272 309.841 25.8147 309.495 25.236C309.15 24.6573 308.977 23.9993 308.977 23.262C308.977 22.5153 309.15 21.8573 309.495 21.288C309.841 20.7093 310.312 20.2567 310.909 19.93C311.507 19.6033 312.188 19.44 312.953 19.44C313.728 19.44 314.414 19.6033 315.011 19.93C315.618 20.2567 316.089 20.7047 316.425 21.274C316.771 21.8433 316.943 22.506 316.943 23.262C316.943 23.9993 316.771 24.6573 316.425 25.236C316.089 25.8147 315.618 26.272 315.011 26.608C314.414 26.9347 313.728 27.098 312.953 27.098ZM312.953 25.6C313.383 25.6 313.765 25.5067 314.101 25.32C314.437 25.1333 314.699 24.8627 314.885 24.508C315.081 24.1533 315.179 23.738 315.179 23.262C315.179 22.7767 315.081 22.3613 314.885 22.016C314.699 21.6613 314.437 21.3907 314.101 21.204C313.765 21.0173 313.387 20.924 312.967 20.924C312.538 20.924 312.155 21.0173 311.819 21.204C311.493 21.3907 311.231 21.6613 311.035 22.016C310.839 22.3613 310.741 22.7767 310.741 23.262C310.741 23.738 310.839 24.1533 311.035 24.508C311.231 24.8627 311.493 25.1333 311.819 25.32C312.155 25.5067 312.533 25.6 312.953 25.6ZM320.064 27L317.32 19.524H318.972L321.324 26.118H320.54L323.004 19.524H324.474L326.868 26.118H326.098L328.52 19.524H330.074L327.316 27H325.636L323.452 21.162H323.97L321.744 27H320.064ZM333.491 27.098C332.866 27.098 332.264 27.0187 331.685 26.86C331.116 26.692 330.663 26.4913 330.327 26.258L330.999 24.928C331.335 25.1427 331.737 25.32 332.203 25.46C332.67 25.6 333.137 25.67 333.603 25.67C334.154 25.67 334.551 25.5953 334.793 25.446C335.045 25.2967 335.171 25.096 335.171 24.844C335.171 24.6387 335.087 24.4847 334.919 24.382C334.751 24.27 334.532 24.186 334.261 24.13C333.991 24.074 333.687 24.0227 333.351 23.976C333.025 23.9293 332.693 23.8687 332.357 23.794C332.031 23.71 331.732 23.5933 331.461 23.444C331.191 23.2853 330.971 23.0753 330.803 22.814C330.635 22.5527 330.551 22.2073 330.551 21.778C330.551 21.302 330.687 20.8913 330.957 20.546C331.228 20.1913 331.606 19.9207 332.091 19.734C332.586 19.538 333.169 19.44 333.841 19.44C334.345 19.44 334.854 19.496 335.367 19.608C335.881 19.72 336.305 19.8787 336.641 20.084L335.969 21.414C335.615 21.1993 335.255 21.0547 334.891 20.98C334.537 20.896 334.182 20.854 333.827 20.854C333.295 20.854 332.899 20.9333 332.637 21.092C332.385 21.2507 332.259 21.4513 332.259 21.694C332.259 21.918 332.343 22.086 332.511 22.198C332.679 22.31 332.899 22.3987 333.169 22.464C333.44 22.5293 333.739 22.5853 334.065 22.632C334.401 22.6693 334.733 22.73 335.059 22.814C335.386 22.898 335.685 23.0147 335.955 23.164C336.235 23.304 336.459 23.5047 336.627 23.766C336.795 24.0273 336.879 24.368 336.879 24.788C336.879 25.2547 336.739 25.6607 336.459 26.006C336.189 26.3513 335.801 26.622 335.297 26.818C334.793 27.0047 334.191 27.098 333.491 27.098ZM341.9 27.098C341.07 27.098 340.342 26.9347 339.716 26.608C339.1 26.272 338.62 25.8147 338.274 25.236C337.938 24.6573 337.77 23.9993 337.77 23.262C337.77 22.5153 337.934 21.8573 338.26 21.288C338.596 20.7093 339.054 20.2567 339.632 19.93C340.22 19.6033 340.888 19.44 341.634 19.44C342.362 19.44 343.011 19.5987 343.58 19.916C344.15 20.2333 344.598 20.6813 344.924 21.26C345.251 21.8387 345.414 22.52 345.414 23.304C345.414 23.3787 345.41 23.4627 345.4 23.556C345.4 23.6493 345.396 23.738 345.386 23.822H339.156V22.66H344.462L343.776 23.024C343.786 22.5947 343.697 22.2167 343.51 21.89C343.324 21.5633 343.067 21.3067 342.74 21.12C342.423 20.9333 342.054 20.84 341.634 20.84C341.205 20.84 340.827 20.9333 340.5 21.12C340.183 21.3067 339.931 21.568 339.744 21.904C339.567 22.2307 339.478 22.618 339.478 23.066V23.346C339.478 23.794 339.581 24.1907 339.786 24.536C339.992 24.8813 340.281 25.1473 340.654 25.334C341.028 25.5207 341.457 25.614 341.942 25.614C342.362 25.614 342.74 25.5487 343.076 25.418C343.412 25.2873 343.711 25.082 343.972 24.802L344.91 25.88C344.574 26.272 344.15 26.5753 343.636 26.79C343.132 26.9953 342.554 27.098 341.9 27.098Z" fill="white"/>
<rect x="0.5" y="0.5" width="266" height="43" stroke="#33658A"/>
<path d="M54.852 27.084C54.1147 27.084 53.4333 26.9627 52.808 26.72C52.1827 26.468 51.6413 26.118 51.184 25.67C50.7267 25.222 50.3673 24.6947 50.106 24.088C49.854 23.4813 49.728 22.8187 49.728 22.1C49.728 21.3813 49.854 20.7187 50.106 20.112C50.3673 19.5053 50.7267 18.978 51.184 18.53C51.6507 18.082 52.1967 17.7367 52.822 17.494C53.4473 17.242 54.1287 17.116 54.866 17.116C55.5753 17.116 56.2427 17.2373 56.868 17.48C57.4933 17.7133 58.0207 18.068 58.45 18.544L57.792 19.202C57.3907 18.7913 56.9473 18.4973 56.462 18.32C55.9767 18.1333 55.454 18.04 54.894 18.04C54.306 18.04 53.76 18.1427 53.256 18.348C52.752 18.544 52.3133 18.8287 51.94 19.202C51.5667 19.566 51.2727 19.9953 51.058 20.49C50.8527 20.9753 50.75 21.512 50.75 22.1C50.75 22.688 50.8527 23.2293 51.058 23.724C51.2727 24.2093 51.5667 24.6387 51.94 25.012C52.3133 25.376 52.752 25.6607 53.256 25.866C53.76 26.062 54.306 26.16 54.894 26.16C55.454 26.16 55.9767 26.0667 56.462 25.88C56.9473 25.6933 57.3907 25.3947 57.792 24.984L58.45 25.642C58.0207 26.118 57.4933 26.4773 56.868 26.72C56.2427 26.9627 55.5707 27.084 54.852 27.084ZM64.2005 19.58C64.7978 19.58 65.3205 19.6967 65.7685 19.93C66.2258 20.154 66.5805 20.4993 66.8325 20.966C67.0938 21.4327 67.2245 22.0207 67.2245 22.73V27H66.2305V22.828C66.2305 22.0533 66.0345 21.47 65.6425 21.078C65.2598 20.6767 64.7185 20.476 64.0185 20.476C63.4958 20.476 63.0385 20.5833 62.6465 20.798C62.2638 21.0033 61.9652 21.3067 61.7505 21.708C61.5452 22.1 61.4425 22.576 61.4425 23.136V27H60.4485V16.612H61.4425V21.666L61.2465 21.288C61.4798 20.756 61.8532 20.3407 62.3665 20.042C62.8798 19.734 63.4912 19.58 64.2005 19.58ZM72.9054 27.07C72.1961 27.07 71.5568 26.9113 70.9874 26.594C70.4274 26.2673 69.9841 25.824 69.6574 25.264C69.3308 24.6947 69.1674 24.046 69.1674 23.318C69.1674 22.5807 69.3308 21.932 69.6574 21.372C69.9841 20.812 70.4274 20.3733 70.9874 20.056C71.5474 19.7387 72.1868 19.58 72.9054 19.58C73.6334 19.58 74.2774 19.7387 74.8374 20.056C75.4068 20.3733 75.8501 20.812 76.1674 21.372C76.4941 21.932 76.6574 22.5807 76.6574 23.318C76.6574 24.046 76.4941 24.6947 76.1674 25.264C75.8501 25.824 75.4068 26.2673 74.8374 26.594C74.2681 26.9113 73.6241 27.07 72.9054 27.07ZM72.9054 26.188C73.4374 26.188 73.9088 26.0713 74.3194 25.838C74.7301 25.5953 75.0521 25.2593 75.2854 24.83C75.5281 24.3913 75.6494 23.8873 75.6494 23.318C75.6494 22.7393 75.5281 22.2353 75.2854 21.806C75.0521 21.3767 74.7301 21.0453 74.3194 20.812C73.9088 20.5693 73.4421 20.448 72.9194 20.448C72.3968 20.448 71.9301 20.5693 71.5194 20.812C71.1088 21.0453 70.7821 21.3767 70.5394 21.806C70.2968 22.2353 70.1754 22.7393 70.1754 23.318C70.1754 23.8873 70.2968 24.3913 70.5394 24.83C70.7821 25.2593 71.1088 25.5953 71.5194 25.838C71.9301 26.0713 72.3921 26.188 72.9054 26.188ZM81.6828 27.07C80.9734 27.07 80.3341 26.9113 79.7648 26.594C79.2048 26.2673 78.7614 25.824 78.4348 25.264C78.1081 24.6947 77.9448 24.046 77.9448 23.318C77.9448 22.5807 78.1081 21.932 78.4348 21.372C78.7614 20.812 79.2048 20.3733 79.7648 20.056C80.3248 19.7387 80.9641 19.58 81.6828 19.58C82.4108 19.58 83.0548 19.7387 83.6148 20.056C84.1841 20.3733 84.6274 20.812 84.9448 21.372C85.2714 21.932 85.4348 22.5807 85.4348 23.318C85.4348 24.046 85.2714 24.6947 84.9448 25.264C84.6274 25.824 84.1841 26.2673 83.6148 26.594C83.0454 26.9113 82.4014 27.07 81.6828 27.07ZM81.6828 26.188C82.2148 26.188 82.6861 26.0713 83.0968 25.838C83.5074 25.5953 83.8294 25.2593 84.0628 24.83C84.3054 24.3913 84.4268 23.8873 84.4268 23.318C84.4268 22.7393 84.3054 22.2353 84.0628 21.806C83.8294 21.3767 83.5074 21.0453 83.0968 20.812C82.6861 20.5693 82.2194 20.448 81.6968 20.448C81.1741 20.448 80.7074 20.5693 80.2968 20.812C79.8861 21.0453 79.5594 21.3767 79.3168 21.806C79.0741 22.2353 78.9528 22.7393 78.9528 23.318C78.9528 23.8873 79.0741 24.3913 79.3168 24.83C79.5594 25.2593 79.8861 25.5953 80.2968 25.838C80.7074 26.0713 81.1694 26.188 81.6828 26.188ZM89.4381 27.07C88.8315 27.07 88.2575 26.986 87.7161 26.818C87.1748 26.6407 86.7501 26.4213 86.4421 26.16L86.8901 25.376C87.1888 25.6 87.5715 25.796 88.0381 25.964C88.5048 26.1227 88.9948 26.202 89.5081 26.202C90.2081 26.202 90.7121 26.0947 91.0201 25.88C91.3281 25.656 91.4821 25.362 91.4821 24.998C91.4821 24.7273 91.3935 24.5173 91.2161 24.368C91.0481 24.2093 90.8241 24.0927 90.5441 24.018C90.2641 23.934 89.9515 23.864 89.6061 23.808C89.2608 23.752 88.9155 23.6867 88.5701 23.612C88.2341 23.5373 87.9261 23.43 87.6461 23.29C87.3661 23.1407 87.1375 22.94 86.9601 22.688C86.7921 22.436 86.7081 22.1 86.7081 21.68C86.7081 21.2787 86.8201 20.9193 87.0441 20.602C87.2681 20.2847 87.5948 20.0373 88.0241 19.86C88.4628 19.6733 88.9948 19.58 89.6201 19.58C90.0961 19.58 90.5721 19.6453 91.0481 19.776C91.5241 19.8973 91.9161 20.0607 92.2241 20.266L91.7901 21.064C91.4635 20.84 91.1135 20.6813 90.7401 20.588C90.3668 20.4853 89.9935 20.434 89.6201 20.434C88.9575 20.434 88.4675 20.5507 88.1501 20.784C87.8421 21.008 87.6881 21.2973 87.6881 21.652C87.6881 21.932 87.7721 22.1513 87.9401 22.31C88.1175 22.4687 88.3461 22.5947 88.6261 22.688C88.9155 22.772 89.2281 22.842 89.5641 22.898C89.9095 22.954 90.2501 23.024 90.5861 23.108C90.9315 23.1827 91.2441 23.29 91.5241 23.43C91.8135 23.5607 92.0421 23.752 92.2101 24.004C92.3875 24.2467 92.4761 24.5687 92.4761 24.97C92.4761 25.3993 92.3548 25.7727 92.1121 26.09C91.8788 26.398 91.5335 26.6407 91.0761 26.818C90.6281 26.986 90.0821 27.07 89.4381 27.07ZM97.4221 27.07C96.6567 27.07 95.9847 26.9113 95.4061 26.594C94.8274 26.2673 94.3747 25.824 94.0481 25.264C93.7214 24.6947 93.5581 24.046 93.5581 23.318C93.5581 22.59 93.7121 21.946 94.0201 21.386C94.3374 20.826 94.7667 20.3873 95.3081 20.07C95.8587 19.7433 96.4747 19.58 97.1561 19.58C97.8467 19.58 98.4581 19.7387 98.9901 20.056C99.5314 20.364 99.9561 20.8027 100.264 21.372C100.572 21.932 100.726 22.5807 100.726 23.318C100.726 23.3647 100.721 23.416 100.712 23.472C100.712 23.5187 100.712 23.57 100.712 23.626H94.3141V22.884H100.18L99.7881 23.178C99.7881 22.646 99.6714 22.1747 99.4381 21.764C99.2141 21.344 98.9061 21.0173 98.5141 20.784C98.1221 20.5507 97.6694 20.434 97.1561 20.434C96.6521 20.434 96.1994 20.5507 95.7981 20.784C95.3967 21.0173 95.0841 21.344 94.8601 21.764C94.6361 22.184 94.5241 22.6647 94.5241 23.206V23.36C94.5241 23.92 94.6454 24.4147 94.8881 24.844C95.1401 25.264 95.4854 25.5953 95.9241 25.838C96.3721 26.0713 96.8807 26.188 97.4501 26.188C97.8981 26.188 98.3134 26.1087 98.6961 25.95C99.0881 25.7913 99.4241 25.5487 99.7041 25.222L100.264 25.866C99.9374 26.258 99.5267 26.5567 99.0321 26.762C98.5467 26.9673 98.0101 27.07 97.4221 27.07ZM111.019 27V25.376L110.977 25.11V22.394C110.977 21.7687 110.8 21.288 110.445 20.952C110.1 20.616 109.582 20.448 108.891 20.448C108.415 20.448 107.963 20.5273 107.533 20.686C107.104 20.8447 106.74 21.0547 106.441 21.316L105.993 20.574C106.367 20.2567 106.815 20.014 107.337 19.846C107.86 19.6687 108.411 19.58 108.989 19.58C109.941 19.58 110.674 19.818 111.187 20.294C111.71 20.7607 111.971 21.4747 111.971 22.436V27H111.019ZM108.485 27.07C107.935 27.07 107.454 26.9813 107.043 26.804C106.642 26.6173 106.334 26.3653 106.119 26.048C105.905 25.7213 105.797 25.348 105.797 24.928C105.797 24.5453 105.886 24.2 106.063 23.892C106.25 23.5747 106.549 23.3227 106.959 23.136C107.379 22.94 107.939 22.842 108.639 22.842H111.173V23.584H108.667C107.958 23.584 107.463 23.71 107.183 23.962C106.913 24.214 106.777 24.5267 106.777 24.9C106.777 25.32 106.941 25.656 107.267 25.908C107.594 26.16 108.051 26.286 108.639 26.286C109.199 26.286 109.68 26.16 110.081 25.908C110.492 25.6467 110.791 25.2733 110.977 24.788L111.201 25.474C111.015 25.9593 110.688 26.3467 110.221 26.636C109.764 26.9253 109.185 27.07 108.485 27.07ZM118.503 27V18.726C118.503 18.0727 118.695 17.5453 119.077 17.144C119.46 16.7427 120.011 16.542 120.729 16.542C121.009 16.542 121.28 16.5793 121.541 16.654C121.803 16.7287 122.022 16.8453 122.199 17.004L121.863 17.746C121.723 17.6247 121.56 17.536 121.373 17.48C121.187 17.4147 120.986 17.382 120.771 17.382C120.351 17.382 120.029 17.4987 119.805 17.732C119.581 17.9653 119.469 18.3107 119.469 18.768V19.888L119.497 20.35V27H118.503ZM117.187 20.476V19.65H121.737V20.476H117.187ZM123.081 27V19.65H124.075V27H123.081ZM123.585 18.026C123.38 18.026 123.207 17.956 123.067 17.816C122.927 17.676 122.857 17.508 122.857 17.312C122.857 17.116 122.927 16.9527 123.067 16.822C123.207 16.682 123.38 16.612 123.585 16.612C123.791 16.612 123.963 16.6773 124.103 16.808C124.243 16.9387 124.313 17.102 124.313 17.298C124.313 17.5033 124.243 17.676 124.103 17.816C123.973 17.956 123.8 18.026 123.585 18.026ZM126.866 27V16.612H127.86V27H126.866ZM133.748 27.07C132.983 27.07 132.311 26.9113 131.732 26.594C131.154 26.2673 130.701 25.824 130.374 25.264C130.048 24.6947 129.884 24.046 129.884 23.318C129.884 22.59 130.038 21.946 130.346 21.386C130.664 20.826 131.093 20.3873 131.634 20.07C132.185 19.7433 132.801 19.58 133.482 19.58C134.173 19.58 134.784 19.7387 135.316 20.056C135.858 20.364 136.282 20.8027 136.59 21.372C136.898 21.932 137.052 22.5807 137.052 23.318C137.052 23.3647 137.048 23.416 137.038 23.472C137.038 23.5187 137.038 23.57 137.038 23.626H130.64V22.884H136.506L136.114 23.178C136.114 22.646 135.998 22.1747 135.764 21.764C135.54 21.344 135.232 21.0173 134.84 20.784C134.448 20.5507 133.996 20.434 133.482 20.434C132.978 20.434 132.526 20.5507 132.124 20.784C131.723 21.0173 131.41 21.344 131.186 21.764C130.962 22.184 130.85 22.6647 130.85 23.206V23.36C130.85 23.92 130.972 24.4147 131.214 24.844C131.466 25.264 131.812 25.5953 132.25 25.838C132.698 26.0713 133.207 26.188 133.776 26.188C134.224 26.188 134.64 26.1087 135.022 25.95C135.414 25.7913 135.75 25.5487 136.03 25.222L136.59 25.866C136.264 26.258 135.853 26.5567 135.358 26.762C134.873 26.9673 134.336 27.07 133.748 27.07ZM139.173 27.07C138.968 27.07 138.791 26.9953 138.641 26.846C138.501 26.6967 138.431 26.5147 138.431 26.3C138.431 26.076 138.501 25.894 138.641 25.754C138.791 25.614 138.968 25.544 139.173 25.544C139.379 25.544 139.551 25.614 139.691 25.754C139.841 25.894 139.915 26.076 139.915 26.3C139.915 26.5147 139.841 26.6967 139.691 26.846C139.551 26.9953 139.379 27.07 139.173 27.07Z" fill="#33658A"/>
<path fill-rule="evenodd" clip-rule="evenodd" d="M34.2821 31.2316L26.6976 18.0947L21.4717 27.1461L18.9502 22.8105L14.0527 31.2316L19.113 31.2316L23.8477 31.2316L34.2821 31.2316Z" fill="#33658A"/>
<circle cx="18.9369" cy="19.6105" r="1.68421" fill="#33658A"/>
<path fill-rule="evenodd" clip-rule="evenodd" d="M36.7895 9H33.9263V13.2105H29.7158L29.7158 16.0737L33.9263 16.0737V20.2842H36.7895V16.0737L41 16.0737V13.2105H36.7895V9Z" fill="#33658A"/>
<path fill-rule="evenodd" clip-rule="evenodd" d="M26.0105 16.0737V13.2105L11.8632 13.2105C10.2819 13.2105 9 14.4924 9 16.0737L26.0105 16.0737ZM39.3158 23.9895H36.4527V33.0842L11.8632 33.0842L11.8632 35.9474L36.4527 35.9474C38.034 35.9474 39.3159 34.6655 39.3159 33.0842L39.3158 33.0842V23.9895ZM11.8632 16.0737V35.9474C10.2819 35.9474 9.00004 34.6655 9.00004 33.0842V16.0737H11.8632Z" fill="#33658A"/>
</svg>
