<svg width="371" height="44" viewBox="0 0 371 44" fill="none" xmlns="http://www.w3.org/2000/svg">
<rect x="267" width="104" height="44" fill="#33658A"/>
<path d="M297.952 27.14C296.608 27.14 295.553 26.762 294.788 26.006C294.032 25.25 293.654 24.158 293.654 22.73V17.2H295.474V22.66C295.474 23.668 295.689 24.4007 296.118 24.858C296.557 25.3153 297.173 25.544 297.966 25.544C298.759 25.544 299.371 25.3153 299.8 24.858C300.229 24.4007 300.444 23.668 300.444 22.66V17.2H302.236V22.73C302.236 24.158 301.853 25.25 301.088 26.006C300.332 26.762 299.287 27.14 297.952 27.14ZM308.761 27.098C308.154 27.098 307.599 26.958 307.095 26.678C306.6 26.398 306.203 25.978 305.905 25.418C305.615 24.8487 305.471 24.13 305.471 23.262C305.471 22.3847 305.611 21.666 305.891 21.106C306.18 20.546 306.572 20.1307 307.067 19.86C307.561 19.58 308.126 19.44 308.761 19.44C309.498 19.44 310.147 19.5987 310.707 19.916C311.276 20.2333 311.724 20.6767 312.051 21.246C312.387 21.8153 312.555 22.4873 312.555 23.262C312.555 24.0367 312.387 24.7133 312.051 25.292C311.724 25.8613 311.276 26.3047 310.707 26.622C310.147 26.9393 309.498 27.098 308.761 27.098ZM304.617 29.716V19.524H306.283V21.288L306.227 23.276L306.367 25.264V29.716H304.617ZM308.565 25.6C308.985 25.6 309.358 25.5067 309.685 25.32C310.021 25.1333 310.287 24.8627 310.483 24.508C310.679 24.1533 310.777 23.738 310.777 23.262C310.777 22.7767 310.679 22.3613 310.483 22.016C310.287 21.6613 310.021 21.3907 309.685 21.204C309.358 21.0173 308.985 20.924 308.565 20.924C308.145 20.924 307.767 21.0173 307.431 21.204C307.095 21.3907 306.829 21.6613 306.633 22.016C306.437 22.3613 306.339 22.7767 306.339 23.262C306.339 23.738 306.437 24.1533 306.633 24.508C306.829 24.8627 307.095 25.1333 307.431 25.32C307.767 25.5067 308.145 25.6 308.565 25.6ZM317.378 27.098C316.66 27.098 316.011 26.9393 315.432 26.622C314.863 26.2953 314.415 25.8473 314.088 25.278C313.762 24.7087 313.598 24.0367 313.598 23.262C313.598 22.4873 313.762 21.8153 314.088 21.246C314.415 20.6767 314.863 20.2333 315.432 19.916C316.011 19.5987 316.66 19.44 317.378 19.44C318.004 19.44 318.564 19.58 319.058 19.86C319.553 20.1307 319.945 20.546 320.234 21.106C320.524 21.666 320.668 22.3847 320.668 23.262C320.668 24.13 320.528 24.8487 320.248 25.418C319.968 25.978 319.581 26.398 319.086 26.678C318.592 26.958 318.022 27.098 317.378 27.098ZM317.588 25.6C318.008 25.6 318.382 25.5067 318.708 25.32C319.044 25.1333 319.31 24.8627 319.506 24.508C319.712 24.1533 319.814 23.738 319.814 23.262C319.814 22.7767 319.712 22.3613 319.506 22.016C319.31 21.6613 319.044 21.3907 318.708 21.204C318.382 21.0173 318.008 20.924 317.588 20.924C317.168 20.924 316.79 21.0173 316.454 21.204C316.128 21.3907 315.862 21.6613 315.656 22.016C315.46 22.3613 315.362 22.7767 315.362 23.262C315.362 23.738 315.46 24.1533 315.656 24.508C315.862 24.8627 316.128 25.1333 316.454 25.32C316.79 25.5067 317.168 25.6 317.588 25.6ZM319.856 27V25.236L319.926 23.248L319.786 21.26V16.612H321.522V27H319.856ZM328.432 27V25.488L328.334 25.166V22.52C328.334 22.0067 328.18 21.61 327.872 21.33C327.564 21.0407 327.097 20.896 326.472 20.896C326.052 20.896 325.636 20.9613 325.226 21.092C324.824 21.2227 324.484 21.4047 324.204 21.638L323.518 20.364C323.919 20.056 324.395 19.8273 324.946 19.678C325.506 19.5193 326.084 19.44 326.682 19.44C327.764 19.44 328.6 19.7013 329.188 20.224C329.785 20.7373 330.084 21.5353 330.084 22.618V27H328.432ZM326.08 27.098C325.52 27.098 325.03 27.0047 324.61 26.818C324.19 26.622 323.863 26.356 323.63 26.02C323.406 25.6747 323.294 25.2873 323.294 24.858C323.294 24.438 323.392 24.06 323.588 23.724C323.793 23.388 324.124 23.122 324.582 22.926C325.039 22.73 325.646 22.632 326.402 22.632H328.572V23.794H326.528C325.93 23.794 325.529 23.892 325.324 24.088C325.118 24.2747 325.016 24.508 325.016 24.788C325.016 25.1053 325.142 25.3573 325.394 25.544C325.646 25.7307 325.996 25.824 326.444 25.824C326.873 25.824 327.256 25.726 327.592 25.53C327.937 25.334 328.184 25.0447 328.334 24.662L328.628 25.712C328.46 26.1507 328.156 26.4913 327.718 26.734C327.288 26.9767 326.742 27.098 326.08 27.098ZM335.144 27.098C334.322 27.098 333.688 26.888 333.24 26.468C332.792 26.0387 332.568 25.4087 332.568 24.578V17.872H334.318V24.536C334.318 24.8907 334.406 25.166 334.584 25.362C334.77 25.558 335.027 25.656 335.354 25.656C335.746 25.656 336.072 25.5533 336.334 25.348L336.824 26.594C336.618 26.762 336.366 26.888 336.068 26.972C335.769 27.056 335.461 27.098 335.144 27.098ZM331.336 20.98V19.58H336.32V20.98H331.336ZM341.531 27.098C340.7 27.098 339.972 26.9347 339.347 26.608C338.731 26.272 338.25 25.8147 337.905 25.236C337.569 24.6573 337.401 23.9993 337.401 23.262C337.401 22.5153 337.564 21.8573 337.891 21.288C338.227 20.7093 338.684 20.2567 339.263 19.93C339.851 19.6033 340.518 19.44 341.265 19.44C341.993 19.44 342.642 19.5987 343.211 19.916C343.78 20.2333 344.228 20.6813 344.555 21.26C344.882 21.8387 345.045 22.52 345.045 23.304C345.045 23.3787 345.04 23.4627 345.031 23.556C345.031 23.6493 345.026 23.738 345.017 23.822H338.787V22.66H344.093L343.407 23.024C343.416 22.5947 343.328 22.2167 343.141 21.89C342.954 21.5633 342.698 21.3067 342.371 21.12C342.054 20.9333 341.685 20.84 341.265 20.84C340.836 20.84 340.458 20.9333 340.131 21.12C339.814 21.3067 339.562 21.568 339.375 21.904C339.198 22.2307 339.109 22.618 339.109 23.066V23.346C339.109 23.794 339.212 24.1907 339.417 24.536C339.622 24.8813 339.912 25.1473 340.285 25.334C340.658 25.5207 341.088 25.614 341.573 25.614C341.993 25.614 342.371 25.5487 342.707 25.418C343.043 25.2873 343.342 25.082 343.603 24.802L344.541 25.88C344.205 26.272 343.78 26.5753 343.267 26.79C342.763 26.9953 342.184 27.098 341.531 27.098Z" fill="white"/>
<rect x="0.5" y="0.5" width="266" height="43" stroke="#33658A"/>
<line x1="10.1213" y1="13" x2="27.8" y2="30.6787" stroke="#33658A" stroke-width="3" stroke-linecap="round"/>
<line x1="10.2" y1="30.6787" x2="27.8786" y2="13" stroke="#33658A" stroke-width="3" stroke-linecap="round"/>
</svg>
