<svg width="371" height="44" viewBox="0 0 371 44" fill="none" xmlns="http://www.w3.org/2000/svg">
<rect x="267" width="104" height="44" fill="#33658A"/>
<path d="M298.656 27.14C297.312 27.14 296.257 26.762 295.492 26.006C294.736 25.25 294.358 24.158 294.358 22.73V17.2H296.178V22.66C296.178 23.668 296.393 24.4007 296.822 24.858C297.261 25.3153 297.877 25.544 298.67 25.544C299.463 25.544 300.075 25.3153 300.504 24.858C300.933 24.4007 301.148 23.668 301.148 22.66V17.2H302.94V22.73C302.94 24.158 302.557 25.25 301.792 26.006C301.036 26.762 299.991 27.14 298.656 27.14ZM309.465 27.098C308.858 27.098 308.303 26.958 307.799 26.678C307.304 26.398 306.908 25.978 306.609 25.418C306.32 24.8487 306.175 24.13 306.175 23.262C306.175 22.3847 306.315 21.666 306.595 21.106C306.884 20.546 307.276 20.1307 307.771 19.86C308.266 19.58 308.83 19.44 309.465 19.44C310.202 19.44 310.851 19.5987 311.411 19.916C311.98 20.2333 312.428 20.6767 312.755 21.246C313.091 21.8153 313.259 22.4873 313.259 23.262C313.259 24.0367 313.091 24.7133 312.755 25.292C312.428 25.8613 311.98 26.3047 311.411 26.622C310.851 26.9393 310.202 27.098 309.465 27.098ZM305.321 29.716V19.524H306.987V21.288L306.931 23.276L307.071 25.264V29.716H305.321ZM309.269 25.6C309.689 25.6 310.062 25.5067 310.389 25.32C310.725 25.1333 310.991 24.8627 311.187 24.508C311.383 24.1533 311.481 23.738 311.481 23.262C311.481 22.7767 311.383 22.3613 311.187 22.016C310.991 21.6613 310.725 21.3907 310.389 21.204C310.062 21.0173 309.689 20.924 309.269 20.924C308.849 20.924 308.471 21.0173 308.135 21.204C307.799 21.3907 307.533 21.6613 307.337 22.016C307.141 22.3613 307.043 22.7767 307.043 23.262C307.043 23.738 307.141 24.1533 307.337 24.508C307.533 24.8627 307.799 25.1333 308.135 25.32C308.471 25.5067 308.849 25.6 309.269 25.6ZM314.919 27V16.612H316.669V27H314.919ZM322.325 27.098C321.56 27.098 320.879 26.9347 320.281 26.608C319.684 26.272 319.213 25.8147 318.867 25.236C318.522 24.6573 318.349 23.9993 318.349 23.262C318.349 22.5153 318.522 21.8573 318.867 21.288C319.213 20.7093 319.684 20.2567 320.281 19.93C320.879 19.6033 321.56 19.44 322.325 19.44C323.1 19.44 323.786 19.6033 324.383 19.93C324.99 20.2567 325.461 20.7047 325.797 21.274C326.143 21.8433 326.315 22.506 326.315 23.262C326.315 23.9993 326.143 24.6573 325.797 25.236C325.461 25.8147 324.99 26.272 324.383 26.608C323.786 26.9347 323.1 27.098 322.325 27.098ZM322.325 25.6C322.755 25.6 323.137 25.5067 323.473 25.32C323.809 25.1333 324.071 24.8627 324.257 24.508C324.453 24.1533 324.551 23.738 324.551 23.262C324.551 22.7767 324.453 22.3613 324.257 22.016C324.071 21.6613 323.809 21.3907 323.473 21.204C323.137 21.0173 322.759 20.924 322.339 20.924C321.91 20.924 321.527 21.0173 321.191 21.204C320.865 21.3907 320.603 21.6613 320.407 22.016C320.211 22.3613 320.113 22.7767 320.113 23.262C320.113 23.738 320.211 24.1533 320.407 24.508C320.603 24.8627 320.865 25.1333 321.191 25.32C321.527 25.5067 321.905 25.6 322.325 25.6ZM332.499 27V25.488L332.401 25.166V22.52C332.401 22.0067 332.247 21.61 331.939 21.33C331.631 21.0407 331.164 20.896 330.539 20.896C330.119 20.896 329.704 20.9613 329.293 21.092C328.892 21.2227 328.551 21.4047 328.271 21.638L327.585 20.364C327.986 20.056 328.462 19.8273 329.013 19.678C329.573 19.5193 330.152 19.44 330.749 19.44C331.832 19.44 332.667 19.7013 333.255 20.224C333.852 20.7373 334.151 21.5353 334.151 22.618V27H332.499ZM330.147 27.098C329.587 27.098 329.097 27.0047 328.677 26.818C328.257 26.622 327.93 26.356 327.697 26.02C327.473 25.6747 327.361 25.2873 327.361 24.858C327.361 24.438 327.459 24.06 327.655 23.724C327.86 23.388 328.192 23.122 328.649 22.926C329.106 22.73 329.713 22.632 330.469 22.632H332.639V23.794H330.595C329.998 23.794 329.596 23.892 329.391 24.088C329.186 24.2747 329.083 24.508 329.083 24.788C329.083 25.1053 329.209 25.3573 329.461 25.544C329.713 25.7307 330.063 25.824 330.511 25.824C330.94 25.824 331.323 25.726 331.659 25.53C332.004 25.334 332.252 25.0447 332.401 24.662L332.695 25.712C332.527 26.1507 332.224 26.4913 331.785 26.734C331.356 26.9767 330.81 27.098 330.147 27.098ZM339.575 27.098C338.856 27.098 338.207 26.9393 337.629 26.622C337.059 26.2953 336.611 25.8473 336.285 25.278C335.958 24.7087 335.795 24.0367 335.795 23.262C335.795 22.4873 335.958 21.8153 336.285 21.246C336.611 20.6767 337.059 20.2333 337.629 19.916C338.207 19.5987 338.856 19.44 339.575 19.44C340.2 19.44 340.76 19.58 341.255 19.86C341.749 20.1307 342.141 20.546 342.431 21.106C342.72 21.666 342.865 22.3847 342.865 23.262C342.865 24.13 342.725 24.8487 342.445 25.418C342.165 25.978 341.777 26.398 341.283 26.678C340.788 26.958 340.219 27.098 339.575 27.098ZM339.785 25.6C340.205 25.6 340.578 25.5067 340.905 25.32C341.241 25.1333 341.507 24.8627 341.703 24.508C341.908 24.1533 342.011 23.738 342.011 23.262C342.011 22.7767 341.908 22.3613 341.703 22.016C341.507 21.6613 341.241 21.3907 340.905 21.204C340.578 21.0173 340.205 20.924 339.785 20.924C339.365 20.924 338.987 21.0173 338.651 21.204C338.324 21.3907 338.058 21.6613 337.853 22.016C337.657 22.3613 337.559 22.7767 337.559 23.262C337.559 23.738 337.657 24.1533 337.853 24.508C338.058 24.8627 338.324 25.1333 338.651 25.32C338.987 25.5067 339.365 25.6 339.785 25.6ZM342.053 27V25.236L342.123 23.248L341.983 21.26V16.612H343.719V27H342.053Z" fill="white"/>
<rect x="0.5" y="0.5" width="266" height="43" stroke="#33658A"/>
<path fill-rule="evenodd" clip-rule="evenodd" d="M34.2821 31.2316L26.6976 18.0947L21.4717 27.1461L18.9502 22.8105L14.0527 31.2316L19.113 31.2316L23.8477 31.2316L34.2821 31.2316Z" fill="#33658A"/>
<circle cx="18.9369" cy="19.6105" r="1.68421" fill="#33658A"/>
<path fill-rule="evenodd" clip-rule="evenodd" d="M36.7895 9H33.9263V13.2105H29.7158L29.7158 16.0737L33.9263 16.0737V20.2842H36.7895V16.0737L41 16.0737V13.2105H36.7895V9Z" fill="#33658A"/>
<path fill-rule="evenodd" clip-rule="evenodd" d="M26.0105 16.0737V13.2105L11.8632 13.2105C10.2819 13.2105 9 14.4924 9 16.0737L26.0105 16.0737ZM39.3158 23.9895H36.4527V33.0842L11.8632 33.0842L11.8632 35.9474L36.4527 35.9474C38.034 35.9474 39.3159 34.6655 39.3159 33.0842L39.3158 33.0842V23.9895ZM11.8632 16.0737V35.9474C10.2819 35.9474 9.00004 34.6655 9.00004 33.0842V16.0737H11.8632Z" fill="#33658A"/>
</svg>
